<?xml version="1.0" encoding="utf-8"?>
<!-- Generator: Adobe Illustrator 27.8.1, SVG Export Plug-In . SVG Version: 6.00 Build 0)  -->
<svg version="1.1" id="Layer_1" xmlns="http://www.w3.org/2000/svg" xmlns:xlink="http://www.w3.org/1999/xlink" x="0px" y="0px"
	 viewBox="0 0 40 40" style="enable-background:new 0 0 40 40;" xml:space="preserve">
<style type="text/css">
	.st0{fill:url(#SVGID_1_);}
	.st1{fill:url(#SVGID_00000001638550887028562430000018290701166229863098_);}
	.st2{fill:none;stroke:url(#SVGID_00000052070305927313912580000013235753679639494835_);stroke-width:0.3516;}
	.st3{fill:url(#SVGID_00000032616331758448797660000002369863026988028569_);}
	.st4{fill:none;stroke:url(#SVGID_00000031198636687466803440000016759000042155631237_);stroke-width:0.3516;}
</style>
<linearGradient id="SVGID_1_" gradientUnits="userSpaceOnUse" x1="20.0016" y1="36.0937" x2="20.0016" y2="3.873" gradientTransform="matrix(1 0 0 -1 0 40)">
	<stop  offset="0" style="stop-color:#FC6811"/>
	<stop  offset="1" style="stop-color:#AB3E00"/>
</linearGradient>
<path class="st0" d="M15.3,3.9c0.6,0,1.2,0,1.8,0h5.8c0.6,0,1.2,0,1.8,0c1.6,0,3.2,0,4.3,0c4,0.3,6.7,2.7,7.1,6.7
	c0.1,1.5,0.1,3.2,0.1,5.3v0c0,0.4,0,0.7,0,1.1v5.8c0,0.4,0,0.7,0,1.1c0,2.1,0,3.9-0.1,5.3c-0.4,4.1-3.1,6.5-7.1,6.7
	c-1.1,0.1-2.7,0.1-4.3,0c-0.6,0-1.2,0-1.8,0h-5.8c-0.6,0-1.2,0-1.8,0c-1.6,0-3.2,0-4.3,0c-4-0.3-6.7-2.7-7.1-6.7
	c-0.1-1.5-0.1-3.2-0.1-5.3v0c0-0.4,0-0.7,0-1.1v-5.8c0-0.4,0-0.7,0-1.1v0c0-2.1,0-3.9,0.1-5.3C4.3,6.6,7.1,4.2,11,4
	C12.1,3.9,13.7,3.9,15.3,3.9z"/>
<g>
	
		<linearGradient id="SVGID_00000067236723094198756780000009920768732009355185_" gradientUnits="userSpaceOnUse" x1="16.9531" y1="26.0938" x2="16.9531" y2="13.9453" gradientTransform="matrix(1 0 0 -1 0 40)">
		<stop  offset="0" style="stop-color:#FFFFFF"/>
		<stop  offset="1" style="stop-color:#C5D4F7"/>
	</linearGradient>
	<path style="fill:url(#SVGID_00000067236723094198756780000009920768732009355185_);" d="M9.1,15.4c0-0.8,0.7-1.5,1.5-1.5H21
		c2.1,0,3.8,1.7,3.8,3.8v6.9c0,0.8-0.7,1.5-1.5,1.5H12.9c-2.1,0-3.7-1.7-3.7-3.8V15.4z"/>
	
		<linearGradient id="SVGID_00000021118889129979240780000013951359394920330938_" gradientUnits="userSpaceOnUse" x1="16.9531" y1="26.0938" x2="16.9531" y2="13.9453" gradientTransform="matrix(1 0 0 -1 0 40)">
		<stop  offset="0" style="stop-color:#FFFFFF"/>
		<stop  offset="1" style="stop-color:#637ACA"/>
	</linearGradient>
	<path style="fill:none;stroke:url(#SVGID_00000021118889129979240780000013951359394920330938_);stroke-width:0.3516;" d="
		M9.3,15.4c0-0.7,0.6-1.3,1.3-1.3H21c2,0,3.6,1.6,3.6,3.6v6.9c0,0.7-0.6,1.3-1.3,1.3H12.9c-2,0-3.6-1.6-3.6-3.6V15.4z"/>
</g>
<g>
	
		<linearGradient id="SVGID_00000044870260298611970530000013031431742416800145_" gradientUnits="userSpaceOnUse" x1="28.3008" y1="25.9765" x2="28.3008" y2="14.0327" gradientTransform="matrix(1 0 0 -1 0 40)">
		<stop  offset="0" style="stop-color:#FFFFFF"/>
		<stop  offset="1" style="stop-color:#C5D4F7"/>
	</linearGradient>
	<path style="fill:url(#SVGID_00000044870260298611970530000013031431742416800145_);" d="M25.7,18.2c0-0.5,0.2-1,0.6-1.3l3-2.6
		c0.6-0.6,1.6-0.1,1.6,0.7v10c0,0.8-1,1.3-1.6,0.7l-2.7-2.3c-0.5-0.5-0.9-1.1-0.9-1.8V18.2z"/>
	
		<linearGradient id="SVGID_00000077302013007851503570000008440960200766056603_" gradientUnits="userSpaceOnUse" x1="28.3008" y1="25.9762" x2="28.3008" y2="14.0331" gradientTransform="matrix(1 0 0 -1 0 40)">
		<stop  offset="0" style="stop-color:#FFFFFF"/>
		<stop  offset="1" style="stop-color:#637ACA"/>
	</linearGradient>
	<path style="fill:none;stroke:url(#SVGID_00000077302013007851503570000008440960200766056603_);stroke-width:0.3516;" d="
		M25.9,18.2c0-0.5,0.2-0.9,0.5-1.2l3-2.6c0.5-0.5,1.3-0.1,1.3,0.6v10c0,0.7-0.8,1.1-1.3,0.6l-2.7-2.3c-0.5-0.4-0.8-1.1-0.8-1.7V18.2
		z"/>
</g>
</svg>
