<?xml version="1.0" encoding="UTF-8"?>
<svg id="Layer_1" data-name="Layer 1" xmlns="http://www.w3.org/2000/svg" xmlns:xlink="http://www.w3.org/1999/xlink" viewBox="0 0 206.9 52">
  <defs>
    <style>
      .cls-1 {
        fill: url(#linear-gradient);
      }

      .cls-1, .cls-2, .cls-3, .cls-4 {
        stroke-width: 0px;
      }

      .cls-2 {
        fill: url(#RazDev_Gradient_Orange_Black);
      }

      .cls-5 {
        stroke: url(#linear-gradient-2);
      }

      .cls-5, .cls-6 {
        fill: none;
        stroke-miterlimit: 5;
        stroke-width: .6px;
      }

      .cls-3 {
        fill: #fff;
      }

      .cls-4 {
        fill: url(#linear-gradient-3);
      }

      .cls-6 {
        stroke: url(#linear-gradient-4);
      }
    </style>
    <linearGradient id="RazDev_Gradient_Orange_Black" data-name="RazDev Gradient Orange Black" x1="28.5" y1="55.5" x2="28.5" y2="14.1" gradientTransform="translate(-9.9 69.8) scale(1.3 -1.3)" gradientUnits="userSpaceOnUse">
      <stop offset="0" stop-color="#fc6811"/>
      <stop offset="1" stop-color="#ab3e00"/>
    </linearGradient>
    <linearGradient id="linear-gradient" x1="24.6" y1="42.6" x2="24.6" y2="27.1" gradientTransform="translate(-9.9 69.8) scale(1.3 -1.3)" gradientUnits="userSpaceOnUse">
      <stop offset="0" stop-color="#fff"/>
      <stop offset="1" stop-color="#c5d4f7"/>
    </linearGradient>
    <linearGradient id="linear-gradient-2" x1="24.6" y1="42.6" x2="24.6" y2="27.1" gradientTransform="translate(-9.9 69.8) scale(1.3 -1.3)" gradientUnits="userSpaceOnUse">
      <stop offset="0" stop-color="#fff"/>
      <stop offset="1" stop-color="#637aca"/>
    </linearGradient>
    <linearGradient id="linear-gradient-3" x1="39.2" y1="42.5" x2="39.2" y2="27.2" gradientTransform="translate(-9.9 69.8) scale(1.3 -1.3)" gradientUnits="userSpaceOnUse">
      <stop offset="0" stop-color="#fff"/>
      <stop offset="1" stop-color="#c5d4f7"/>
    </linearGradient>
    <linearGradient id="linear-gradient-4" x1="39.2" y1="42.5" x2="39.2" y2="27.2" gradientTransform="translate(-9.9 69.8) scale(1.3 -1.3)" gradientUnits="userSpaceOnUse">
      <stop offset="0" stop-color="#fff"/>
      <stop offset="1" stop-color="#637aca"/>
    </linearGradient>
  </defs>
  <g>
    <path class="cls-3" d="m64,42.7V9.2h12c1.8,0,3.3.3,4.5,1s2.2,1.6,2.8,2.8c.6,1.2,1,2.7,1,4.4v5.5c0,1.5-.3,2.7-.8,3.8-.6,1.1-1.3,1.9-2.2,2.4l3.5,13.5h-8.6l-2.6-11.9h-1.1v11.9h-8.4Zm8.4-17.9h1.3c.7,0,1.2-.2,1.6-.5.4-.3.6-.8.6-1.4v-5.2c0-.6-.2-1.1-.6-1.4-.4-.3-.9-.5-1.6-.5h-1.3v9.1Z"/>
    <path class="cls-3" d="m86.1,42.7l5.7-33.5h7.9v8.1h-2.4l-2.7,25.4h-8.5Zm4.9-5.4l1-6.3h10.9l1,6.3h-12.8Zm9.3,5.4l-2.8-25.4v-8.1h5.5l5.7,33.5h-8.4Z"/>
    <path class="cls-3" d="m110.5,42.7v-5.7l9-20.6v-.2h-9v-7h17.9v5.6l-9,20.7v.2h9.3v7h-18.2Z"/>
    <path class="cls-3" d="m141.4,43.2c-2.1,0-4-.4-5.6-1.3-1.6-.9-2.9-2.1-3.8-3.7-.9-1.6-1.3-3.4-1.3-5.5v-13.5c0-2.1.5-4,1.4-5.6.9-1.6,2.2-2.8,3.8-3.7,1.6-.9,3.5-1.3,5.6-1.3s4,.4,5.6,1.3,2.8,2.1,3.7,3.7c.9,1.6,1.3,3.4,1.3,5.6v13.5c0,2.1-.4,4-1.3,5.6-.9,1.6-2.1,2.8-3.7,3.7-1.6.9-3.5,1.3-5.6,1.3Zm0-7.2c.4,0,.8-.1,1.2-.3.3-.2.6-.5.8-.9.2-.4.3-.8.3-1.2v-15.3c0-.5,0-.9-.3-1.3-.2-.4-.4-.7-.7-.9-.3-.2-.7-.3-1.2-.3s-.8.1-1.2.3c-.3.2-.6.5-.7.8-.2.4-.2.8-.2,1.3v15.3c0,.5,0,.9.2,1.2.2.4.4.6.8.9s.7.3,1.2.3Z"/>
    <path class="cls-3" d="m165.4,43.2c-2.1,0-4-.4-5.6-1.3-1.6-.9-2.9-2.1-3.8-3.7-.9-1.6-1.3-3.4-1.3-5.5v-13.5c0-2.1.5-4,1.4-5.6.9-1.6,2.2-2.8,3.8-3.7,1.6-.9,3.5-1.3,5.6-1.3s4,.4,5.6,1.3,2.8,2.1,3.7,3.7c.9,1.6,1.3,3.4,1.3,5.6v13.5c0,2.1-.4,4-1.3,5.6-.9,1.6-2.1,2.8-3.7,3.7-1.6.9-3.5,1.3-5.6,1.3Zm0-7.2c.4,0,.8-.1,1.2-.3.3-.2.6-.5.8-.9.2-.4.3-.8.3-1.2v-15.3c0-.5,0-.9-.3-1.3-.2-.4-.4-.7-.7-.9-.3-.2-.7-.3-1.2-.3s-.8.1-1.2.3c-.3.2-.6.5-.7.8-.2.4-.2.8-.2,1.3v15.3c0,.5,0,.9.2,1.2.2.4.4.6.8.9s.7.3,1.2.3Z"/>
    <path class="cls-3" d="m178.8,42.7V9.2h10.9l3.1,21.9h.2l3-21.9h11v33.5h-7.1v-22.1s-3.6,0-3.6,0l5.2-10.5-5.1,32.6h-6.9l-5.1-32.6,5.2,10.5h-3.7v22.1s-7.1,0-7.1,0Z"/>
  </g>
  <path class="cls-2" d="m18.4,0c1,0,1.9,0,2.8,0h9.3c.9,0,1.9,0,2.8,0,2.6,0,5.2,0,6.9,0,6.4.4,10.8,4.3,11.4,10.9.1,2.4.1,5.2.1,8.6h0c0,.6,0,1.2,0,1.8v9.3c0,.6,0,1.2,0,1.8,0,3.4,0,6.2-.1,8.6-.6,6.6-5,10.5-11.4,10.9-1.8.1-4.4,0-6.9,0-1,0-1.9,0-2.8,0h-9.3c-.9,0-1.9,0-2.8,0-2.6,0-5.2,0-6.9,0-6.4-.4-10.8-4.3-11.4-10.9C0,38.6,0,35.8,0,32.4H0c0-.6,0-1.2,0-1.8v-9.3c0-.6,0-1.2,0-1.8H0c0-3.4,0-6.2.1-8.6C.7,4.4,5.1.5,11.5,0,13.3,0,15.9,0,18.4,0Z"/>
  <g>
    <path class="cls-1" d="m8.4,18.5c0-1.3,1.1-2.4,2.4-2.4h16.8c3.3,0,6,2.7,6,6v11.2c0,1.3-1.1,2.4-2.4,2.4H14.5c-3.3,0-6-2.7-6-6v-11.2Z"/>
    <path class="cls-5" d="m10.8,16.4h16.8c3.2,0,5.8,2.6,5.8,5.8v11.2c0,1.2-.9,2.1-2.1,2.1H14.5c-3.2,0-5.8-2.6-5.8-5.8v-11.2c0-1.2.9-2.1,2.1-2.1Z"/>
  </g>
  <g>
    <path class="cls-4" d="m35.2,23.1c0-.8.4-1.6,1-2.1l4.8-4.2c1-.9,2.6-.2,2.6,1.2v16.1c0,1.3-1.6,2.1-2.6,1.2l-4.4-3.7c-.9-.7-1.4-1.8-1.4-3v-5.4Z"/>
    <path class="cls-6" d="m36.3,21.2l4.8-4.2c.8-.7,2.1-.1,2.1,1v16.1c0,1.1-1.3,1.7-2.1,1l-4.4-3.7c-.8-.7-1.3-1.7-1.3-2.8v-5.4c0-.7.3-1.4.9-1.9Z"/>
  </g>
</svg>